# Blender 3.6.4
# www.blender.org
o Cube
v -1.000000 -1.000000 1.000000
v -1.000000 2.109081 1.000000
v -1.000000 -1.000000 -1.000000
v -1.000000 2.109081 -1.000000
v 1.000000 -1.000000 1.000000
v 1.000000 2.109081 1.000000
v 1.000000 -1.000000 -1.000000
v 1.000000 2.109081 -1.000000
vn 1.0000 -0.0000 -0.0000
vn -0.0000 -0.0000 1.0000
vn -1.0000 -0.0000 -0.0000
vn -0.0000 -0.0000 -1.0000
vn -0.0000 1.0000 -0.0000
vt 0.487170 0.524807
vt 0.000751 0.014733
vt 0.466218 0.499127
vt 0.510873 0.498273
vt 0.000100 0.999900
vt 0.489526 0.477160
vt 0.992901 0.999900
vt 0.974344 0.000100
s 0
f 3/1/1 2/2/1 1/3/1
f 7/4/2 4/5/2 3/1/2
f 5/6/3 8/7/3 7/4/3
f 1/3/4 6/8/4 5/6/4
f 1/3/5 7/4/5 3/1/5
f 3/1/1 4/5/1 2/2/1
f 7/4/2 8/7/2 4/5/2
f 5/6/3 6/8/3 8/7/3
f 1/3/4 2/2/4 6/8/4
f 1/3/5 5/6/5 7/4/5
