# Blender 3.6.4
# www.blender.org
o Cube
v 1.000000 2.000000 -5.581944
v 1.000000 -1.663508 -5.581944
v 1.000000 2.000000 1.000000
v 1.000000 0.000000 1.000000
v -1.000000 2.000000 -5.581944
v -1.000000 -1.663508 -5.581944
v -1.000000 2.000000 1.000000
v -1.000000 0.000000 1.000000
vn -0.0000 -1.0000 -0.0000
vn -0.0000 -0.0000 -1.0000
vn 1.0000 -0.0000 -0.0000
vn -0.0000 0.9695 -0.2450
vn -1.0000 -0.0000 -0.0000
vn -0.0000 -0.0000 1.0000
vt 0.200059 0.400020
vt 0.200059 0.799941
vt 0.400019 0.599980
vt 0.200059 0.000098
vt 0.400019 0.200059
vt 0.999902 0.799941
vt 0.599980 0.799941
vt 0.799941 0.999902
vt 0.599980 0.000098
vt 0.599980 0.400020
vt 0.799941 0.200059
vt 0.799941 0.599980
vt 0.000098 0.599980
vt 0.000098 0.200059
s 0
f 3/1/1 5/2/1 1/3/1
f 8/4/2 3/1/2 4/5/2
f 8/6/3 5/7/3 7/8/3
f 8/9/4 2/10/4 6/11/4
f 4/5/5 1/3/5 2/10/5
f 2/10/6 5/7/6 6/12/6
f 3/1/1 7/13/1 5/2/1
f 8/4/2 7/14/2 3/1/2
f 8/6/3 6/12/3 5/7/3
f 8/9/4 4/5/4 2/10/4
f 4/5/5 3/1/5 1/3/5
f 2/10/6 1/3/6 5/7/6
