# Blender 3.6.4
# www.blender.org
o Plane
v -5.000000 0.000000 5.000000
v 5.000000 0.000000 5.000000
v -5.000000 0.000000 -5.000000
v 5.000000 0.000000 -5.000000
v -5.000000 1.389290 0.000000
v 5.000000 1.389290 0.000000
v 5.000000 0.000000 -2.500000
v -5.000000 0.000000 -2.500000
v -5.000000 0.000000 2.500000
v 5.000000 0.000000 2.500000
vn -0.0000 1.0000 -0.0000
vn -0.0000 0.8741 0.4858
vn -0.0000 0.8741 -0.4858
vt 0.000097 0.233257
vt 0.932736 0.000097
vt 0.932736 0.233257
vt 0.000097 0.766744
vt 0.932736 0.500000
vt 0.932736 0.766743
vt 0.000097 0.500000
vt 0.000097 0.999903
vt 0.932736 0.999903
vt 0.000097 0.000097
s 0
f 7/1/1 3/2/1 8/3/1
f 10/4/2 5/5/2 9/6/2
f 6/7/3 8/3/3 5/5/3
f 2/8/1 9/6/1 1/9/1
f 7/1/1 4/10/1 3/2/1
f 10/4/2 6/7/2 5/5/2
f 6/7/3 7/1/3 8/3/3
f 2/8/1 10/4/1 9/6/1
