# Blender 3.6.4
# www.blender.org
o Cube
v -1.000000 -1.000000 1.000000
v -1.000000 1.000000 1.000000
v -1.000000 -1.000000 -1.000000
v -1.000000 1.000000 -1.000000
v 5.000000 -1.551352 1.000000
v 5.000000 1.000000 1.000000
v 5.000000 -1.551352 -1.000000
v 5.000000 1.000000 -1.000000
v 3.120000 -1.378595 -1.000000
v 3.120000 1.000000 -1.000000
v 3.120000 -1.378595 1.000000
v 3.120000 1.000000 1.000000
v 5.000000 -2.314041 4.903622
v 5.000000 1.000000 4.903622
v 3.120000 -2.141284 4.903622
v 3.120000 1.000000 4.903622
v 3.120000 -1.811834 3.217417
v 3.120000 1.000000 3.217417
v 5.000000 1.000000 3.217417
v 5.000000 -1.984591 3.217417
v 7.014166 -3.308877 4.903622
v 7.014166 1.000000 4.903622
v 7.014166 1.000000 3.217417
v 7.014166 -2.979427 3.217417
vn 1.0000 -0.0000 -0.0000
vn -0.0000 -0.0000 1.0000
vn -1.0000 -0.0000 -0.0000
vn -0.0000 -0.0000 -1.0000
vn 0.0915 0.9958 -0.0000
vn 0.0898 0.9775 0.1910
vn 0.4362 0.8831 0.1725
vt 0.218700 0.824753
vt 0.000513 0.769467
vt 0.189310 0.722039
vt 0.287753 0.807335
vt 0.369524 0.989901
vt 0.308039 0.999911
vt 0.379706 0.653774
vt 0.321462 0.801240
vt 0.000089 0.582002
vt 0.295600 0.630362
vt 0.027029 0.143487
vt 0.392990 0.321286
vt 0.031588 0.329683
vt 0.143969 0.960954
vt 0.337997 0.130554
vt 0.027142 0.062600
vt 0.379549 0.075828
vt 0.515126 0.307696
vt 0.727677 0.733968
vt 0.536879 0.869673
vt 0.791906 0.705681
vt 0.582638 0.146286
vt 0.028082 0.000089
vt 0.487955 0.000089
s 0
f 3/1/1 2/2/1 1/3/1
f 9/4/2 8/5/2 10/6/2
f 5/7/3 8/5/3 7/8/3
f 1/3/4 12/9/4 11/10/4
f 11/10/5 7/8/5 9/4/5
f 1/3/5 9/4/5 3/1/5
f 16/11/1 17/12/1 18/13/1
f 3/1/2 10/6/2 4/14/2
f 15/15/4 14/16/4 13/17/4
f 17/12/6 5/7/6 11/10/6
f 15/15/6 20/18/6 17/12/6
f 5/7/3 19/19/3 6/20/3
f 18/13/1 11/10/1 12/9/1
f 20/18/2 23/21/2 19/19/2
f 13/17/7 24/22/7 20/18/7
f 22/23/4 13/17/4 14/16/4
f 3/1/1 4/14/1 2/2/1
f 9/4/2 7/8/2 8/5/2
f 5/7/3 6/20/3 8/5/3
f 1/3/4 2/2/4 12/9/4
f 11/10/5 5/7/5 7/8/5
f 1/3/5 11/10/5 9/4/5
f 16/11/1 15/15/1 17/12/1
f 3/1/2 9/4/2 10/6/2
f 15/15/4 16/11/4 14/16/4
f 17/12/6 20/18/6 5/7/6
f 15/15/6 13/17/6 20/18/6
f 5/7/3 20/18/3 19/19/3
f 18/13/1 17/12/1 11/10/1
f 20/18/2 24/22/2 23/21/2
f 13/17/7 21/24/7 24/22/7
f 22/23/4 21/24/4 13/17/4
