# Blender 3.6.4
# www.blender.org
o Plane
v -0.019820 0.000387 1.007326
v 0.019820 0.000387 1.007326
v -0.019820 0.013289 1.007326
v 0.019820 0.013289 1.007326
v -0.019820 0.027609 1.002869
v 0.019820 0.027609 1.002869
v -0.019820 0.042806 0.993954
v 0.019820 0.042806 0.993954
v -0.019820 0.057126 0.981697
v 0.019820 0.057126 0.981697
vn -0.0000 -0.0000 1.0000
vn -0.0000 0.2972 0.9548
vn -0.0000 0.5060 0.8625
vn -0.0000 0.6503 0.7597
vt 0.268187 0.000063
vt 0.166432 0.434557
vt 0.000063 0.268187
vt 0.434557 0.166433
vt 0.351105 0.619229
vt 0.619229 0.351105
vt 0.547100 0.815225
vt 0.815225 0.547100
vt 0.731813 0.999937
vt 0.999937 0.731813
s 0
f 2/1/1 3/2/1 1/3/1
f 4/4/2 5/5/2 3/2/2
f 6/6/3 7/7/3 5/5/3
f 8/8/4 9/9/4 7/7/4
f 2/1/1 4/4/1 3/2/1
f 4/4/2 6/6/2 5/5/2
f 6/6/3 8/8/3 7/7/3
f 8/8/4 10/10/4 9/9/4
