# Blender 3.6.4
# www.blender.org
o Cube
v 18.832479 -6.854461 -1.414214
v 18.348791 -8.183387 0.000000
v 18.832479 -6.854461 1.414214
v -2.819078 1.026060 -1.414214
v -3.302767 -0.302866 0.000000
v -2.819078 1.026060 1.414214
v 18.291283 -8.341388 -0.168141
v -3.360275 -0.460867 -0.168141
v -3.363130 -0.468711 0.176489
v 18.288427 -8.349233 0.176489
vn -0.2418 -0.6645 0.7071
vn -0.2418 -0.6645 -0.7071
vn 0.2418 0.6645 -0.7071
vn 0.2418 0.6645 0.7071
vt 0.000135 0.000135
vt 0.499865 0.499865
vt 0.000135 0.499865
vt 0.500135 0.000135
vt 0.999865 0.499865
vt 0.500135 0.499865
vt 0.062769 0.500135
vt 0.122184 0.999865
vt 0.062769 0.999865
vt 0.062500 0.999865
vt 0.000135 0.500135
vt 0.062500 0.500135
vt 0.499865 0.000135
vt 0.999865 0.000135
vt 0.122184 0.500135
vt 0.000135 0.999865
s 0
f 2/1/1 6/2/1 5/3/1
f 4/4/2 2/5/2 5/6/2
f 2/7/3 8/8/3 5/9/3
f 5/10/4 10/11/4 2/12/4
f 2/1/1 3/13/1 6/2/1
f 4/4/2 1/14/2 2/5/2
f 2/7/3 7/15/3 8/8/3
f 5/10/4 9/16/4 10/11/4
