# Blender 3.6.4
# www.blender.org
o Cube
v 5.000000 5.000000 -5.000000
v 5.000000 -5.000000 -5.000000
v 5.000000 5.000000 5.000000
v 5.000000 -5.000000 5.000000
v -5.000000 5.000000 -5.000000
v -5.000000 -5.000000 -5.000000
v -5.000000 5.000000 5.000000
v -5.000000 -5.000000 5.000000
v -5.000000 -3.500000 0.000000
v 5.000000 5.000000 0.000000
v -5.000000 5.000000 0.000000
v 5.000000 -3.500000 0.000000
v -5.000000 5.000000 -2.500000
v 5.000000 -5.000000 -2.500000
v -5.000000 -5.000000 -2.500000
v 5.000000 5.000000 -2.500000
v -5.000000 -5.000000 2.500000
v 5.000000 5.000000 2.500000
v -5.000000 5.000000 2.500000
v 5.000000 -5.000000 2.500000
vn -0.0000 -1.0000 -0.0000
vn -0.0000 -0.0000 -1.0000
vn 1.0000 -0.0000 -0.0000
vn -0.0000 1.0000 -0.0000
vn -1.0000 -0.0000 -0.0000
vn -0.0000 -0.0000 1.0000
vn -0.0000 0.8575 -0.5145
vn -0.0000 0.8575 0.5145
vt 0.200059 0.400020
vt 0.050088 0.649971
vt 0.250049 0.450010
vt 0.200059 0.000098
vt 0.400019 0.200059
vt 0.799941 0.599980
vt 0.649971 0.849931
vt 0.849931 0.649971
vt 0.599980 0.000098
vt 0.450010 0.250049
vt 0.649971 0.050088
vt 0.599980 0.400020
vt 0.599980 0.799941
vt 0.500000 0.300039
vt 0.350029 0.549990
vt 0.549990 0.350029
vt 0.699961 0.100078
vt 0.749951 0.150069
vt 0.899922 0.699961
vt 0.749951 0.949912
vt 0.949912 0.749951
vt 0.300039 0.500000
vt 0.150068 0.749951
vt 0.200059 0.799941
vt 0.400019 0.599980
vt 0.799941 0.200059
vt 0.699961 0.899922
vt 0.799941 0.999902
vt 0.999902 0.799941
vt 0.100078 0.699961
vt 0.000098 0.599980
vt 0.000098 0.200059
s 0
f 3/1/1 19/2/1 18/3/1
f 8/4/2 3/1/2 4/5/2
f 6/6/3 13/7/3 15/8/3
f 8/9/4 20/10/4 17/11/4
f 4/5/5 18/3/5 20/10/5
f 2/12/6 5/13/6 6/6/6
f 12/14/5 16/15/5 14/16/5
f 9/17/7 14/16/7 15/18/7
f 9/19/3 19/20/3 17/21/3
f 10/22/1 13/23/1 16/15/1
f 16/15/1 5/24/1 1/25/1
f 15/18/4 2/12/4 6/26/4
f 14/16/5 1/25/5 2/12/5
f 9/19/3 13/7/3 11/27/3
f 17/21/3 7/28/3 8/29/3
f 12/14/5 18/3/5 10/22/5
f 17/11/8 12/14/8 9/17/8
f 18/3/1 11/30/1 10/22/1
f 3/1/1 7/31/1 19/2/1
f 8/4/2 7/32/2 3/1/2
f 6/6/3 5/13/3 13/7/3
f 8/9/4 4/5/4 20/10/4
f 4/5/5 3/1/5 18/3/5
f 2/12/6 1/25/6 5/13/6
f 12/14/5 10/22/5 16/15/5
f 9/17/7 12/14/7 14/16/7
f 9/19/3 11/27/3 19/20/3
f 10/22/1 11/30/1 13/23/1
f 16/15/1 13/23/1 5/24/1
f 15/18/4 14/16/4 2/12/4
f 14/16/5 16/15/5 1/25/5
f 9/19/3 15/8/3 13/7/3
f 17/21/3 19/20/3 7/28/3
f 12/14/5 20/10/5 18/3/5
f 17/11/8 20/10/8 12/14/8
f 18/3/1 19/2/1 11/30/1
