# Blender 3.6.4
# www.blender.org
o Plane
v 2.500000 0.000000 2.500000
v 2.500000 0.000000 -2.500000
v -2.500000 0.000000 2.500000
v -2.500000 0.000000 -2.500000
v 0.000000 0.500000 2.500000
v -0.000000 0.500000 -2.500000
v -1.250000 0.000000 -2.500000
v -1.250000 0.000000 2.500000
v 1.250000 0.000000 2.500000
v 1.250000 0.000000 -2.500000
v 2.500000 5.956203 2.500000
v 2.500000 5.956203 -2.500000
v -2.500000 5.956203 2.500000
v -2.500000 5.956203 -2.500000
v 0.000000 6.456203 2.500000
v -0.000000 6.456203 -2.500000
v -1.250000 5.956203 -2.500000
v -1.250000 5.956203 2.500000
v 1.250000 5.956203 2.500000
v 1.250000 5.956203 -2.500000
vn -0.0000 1.0000 -0.0000
vn 0.3714 0.9285 -0.0000
vn -0.3714 0.9285 -0.0000
vn -1.0000 -0.0000 -0.0000
vn -0.0000 -0.0000 -1.0000
vn -0.0000 -0.0000 1.0000
vn 1.0000 -0.0000 -0.0000
vn -0.0000 -1.0000 -0.0000
vn 0.3714 -0.9285 -0.0000
vn -0.3714 -0.9285 -0.0000
vt 0.492461 0.691754
vt 0.252630 0.479186
vt 0.308873 0.407045
vt 0.690500 0.592955
vt 0.378720 0.324777
vt 0.506911 0.308245
vt 0.620652 0.675223
vt 0.746742 0.520814
vt 0.603306 0.282089
vt 0.718934 0.012324
vt 0.000093 0.385402
vt 0.889906 0.778131
vt 0.538077 0.999907
vt 0.396067 0.717911
vt 0.280439 0.987676
vt 0.461296 0.000093
vt 0.109467 0.221868
vt 0.999280 0.614598
vt 0.228821 0.034353
vt 0.770552 0.965647
s 0
f 7/1/1 3/2/1 8/3/1
f 10/4/2 5/5/2 9/6/2
f 6/7/3 8/3/3 5/5/3
f 2/8/1 9/6/1 1/9/1
f 11/10/4 2/8/4 1/9/4
f 13/11/5 8/3/5 3/2/5
f 20/12/6 6/7/6 10/4/6
f 17/13/6 4/14/6 7/1/6
f 14/15/7 3/2/7 4/14/7
f 5/5/5 19/16/5 9/6/5
f 19/16/5 1/9/5 9/6/5
f 6/7/6 17/13/6 7/1/6
f 18/17/5 5/5/5 8/3/5
f 12/18/6 10/4/6 2/8/6
f 18/17/8 14/15/8 17/13/8
f 17/13/9 15/19/9 18/17/9
f 19/16/10 16/20/10 20/12/10
f 20/12/8 11/10/8 19/16/8
f 7/1/1 4/14/1 3/2/1
f 10/4/2 6/7/2 5/5/2
f 6/7/3 7/1/3 8/3/3
f 2/8/1 10/4/1 9/6/1
f 11/10/4 12/18/4 2/8/4
f 13/11/5 18/17/5 8/3/5
f 20/12/6 16/20/6 6/7/6
f 17/13/6 14/15/6 4/14/6
f 14/15/7 13/11/7 3/2/7
f 5/5/5 15/19/5 19/16/5
f 19/16/5 11/10/5 1/9/5
f 6/7/6 16/20/6 17/13/6
f 18/17/5 15/19/5 5/5/5
f 12/18/6 20/12/6 10/4/6
f 18/17/8 13/11/8 14/15/8
f 17/13/9 16/20/9 15/19/9
f 19/16/10 15/19/10 16/20/10
f 20/12/8 12/18/8 11/10/8
