# Blender 3.6.4
# www.blender.org
o Cube.001
v 1.000000 3.425265 -1.000000
v 1.000000 3.425265 1.000000
v -1.000000 3.425265 -1.000000
v -1.000000 3.425265 1.000000
vn -0.0000 -1.0000 -0.0000
vt 0.999900 0.999900
vt 0.000100 0.000100
vt 0.999900 0.000100
vt 0.000100 0.999900
s 0
f 2/1/1 3/2/1 1/3/1
f 2/1/1 4/4/1 3/2/1
o Cube.002
v 1.000000 3.425265 -1.000000
v 1.000000 0.000000 -1.000000
v 1.000000 3.425265 1.000000
v 1.000000 0.000000 1.000000
vn -1.0000 -0.0000 -0.0000
vt 0.583883 0.000076
vt 0.000076 0.999924
vt 0.000076 0.000077
vt 0.583883 0.999923
s 0
f 8/5/2 5/6/2 6/7/2
f 8/5/2 7/8/2 5/6/2
o Cube.003
v 1.000000 3.425265 1.000000
v 1.000000 0.000000 1.000000
v -1.000000 3.425265 1.000000
v -1.000000 0.000000 1.000000
vn -0.0000 -0.0000 -1.0000
vt 0.583883 0.000076
vt 0.000076 0.999924
vt 0.000076 0.000077
vt 0.583883 0.999923
s 0
f 12/9/3 9/10/3 10/11/3
f 12/9/3 11/12/3 9/10/3
o Cube.004
v -1.000000 3.425265 -1.000000
v -1.000000 0.000000 -1.000000
v -1.000000 3.425265 1.000000
v -1.000000 0.000000 1.000000
vn 1.0000 -0.0000 -0.0000
vt 0.583883 0.000076
vt 0.000076 0.999924
vt 0.000076 0.000077
vt 0.583883 0.999923
s 0
f 14/13/4 15/14/4 16/15/4
f 14/13/4 13/16/4 15/14/4
o Cube.005
v 1.000000 3.425265 -1.000000
v 1.000000 0.000000 -1.000000
v -1.000000 3.425265 -1.000000
v -1.000000 0.000000 -1.000000
vn -0.0000 -0.0000 1.0000
vt 0.583883 0.000076
vt 0.000076 0.999924
vt 0.000076 0.000077
vt 0.583883 0.999923
s 0
f 18/17/5 19/18/5 20/19/5
f 18/17/5 17/20/5 19/18/5
o Cube.006
v 1.000000 0.000000 -1.000000
v 1.000000 0.000000 1.000000
v -1.000000 0.000000 -1.000000
v -1.000000 0.000000 1.000000
vn -0.0000 1.0000 -0.0000
vt 0.000100 0.999900
vt 0.999900 0.000100
vt 0.999900 0.999900
vt 0.000100 0.000100
s 0
f 24/21/6 21/22/6 23/23/6
f 24/21/6 22/24/6 21/22/6
